<svg width="16" height="12" viewBox="0 0 16 12" fill="none" xmlns="http://www.w3.org/2000/svg">
<path d="M9.3 11.275C9.1 11.075 9.004 10.8333 9.012 10.55C9.02067 10.2667 9.125 10.025 9.325 9.825L12.15 7H1C0.716667 7 0.479 6.904 0.287 6.712C0.0956668 6.52067 0 6.28333 0 6C0 5.71667 0.0956668 5.479 0.287 5.287C0.479 5.09567 0.716667 5 1 5H12.15L9.3 2.15C9.1 1.95 9 1.71233 9 1.437C9 1.16233 9.1 0.924999 9.3 0.724999C9.5 0.524999 9.73767 0.424999 10.013 0.424999C10.2877 0.424999 10.525 0.524999 10.725 0.724999L15.3 5.3C15.4 5.4 15.471 5.50833 15.513 5.625C15.5543 5.74167 15.575 5.86667 15.575 6C15.575 6.13333 15.5543 6.25833 15.513 6.375C15.471 6.49167 15.4 6.6 15.3 6.7L10.7 11.3C10.5167 11.4833 10.2877 11.575 10.013 11.575C9.73767 11.575 9.5 11.475 9.3 11.275Z" fill="#F9F9F9"/>
</svg>
