<svg width="56" height="45" viewBox="0 0 56 45" fill="none" xmlns="http://www.w3.org/2000/svg">
<path d="M8.69215 45L18.9182 27H24.4786V45H31.7647V0H16.4256C13.0169 0 10.1408 0.604316 7.79737 1.81295C5.41129 3.02158 3.64303 4.64029 2.4926 6.66907C1.29956 8.69784 0.703039 10.964 0.703039 13.4676C0.703039 16.4029 1.55521 19.0791 3.25956 21.4964C4.92129 23.8705 7.49911 25.4892 10.993 26.3525L0 45H8.69215ZM24.4786 21.1079H16.4256C13.6987 21.1079 11.6535 20.4173 10.29 19.036C8.88389 17.6547 8.18085 15.7986 8.18085 13.4676C8.18085 11.1367 8.86259 9.32374 10.2261 8.02878C11.5895 6.69065 13.6561 6.02158 16.4256 6.02158H24.4786V21.1079Z" fill="#020622"/>
<path d="M47.1762 21.8849C49.5199 22.3165 51.5078 23.5899 53.14 25.705C54.7721 27.8201 55.5882 30.2158 55.5882 32.8921C55.5882 35.1799 55.0023 37.2518 53.8305 39.1079C52.7005 40.9209 51.0474 42.3669 48.8712 43.446C46.695 44.482 44.163 45 41.2753 45H23.8235V0H40.4592C43.4306 0 45.9835 0.517987 48.1179 1.55396C50.2523 2.58993 51.8635 3.99281 52.9516 5.76259C54.0398 7.48921 54.5838 9.43165 54.5838 11.5899C54.5838 14.1799 53.9142 16.3381 52.575 18.0647C51.2358 19.7914 49.4362 21.0647 47.1762 21.8849ZM30.98 18.9065H39.8314C42.1751 18.9065 43.9956 18.3669 45.293 17.2878C46.6322 16.1655 47.3018 14.5683 47.3018 12.4964C47.3018 10.4676 46.6322 8.89209 45.293 7.76978C43.9956 6.60432 42.1751 6.02158 39.8314 6.02158H30.98V18.9065ZM40.6475 38.9784C43.0749 38.9784 44.9791 38.3741 46.3601 37.1655C47.7412 35.9568 48.4318 34.2734 48.4318 32.1151C48.4318 29.9137 47.6994 28.1655 46.2346 26.8705C44.7698 25.5755 42.8238 24.9281 40.3964 24.9281H30.98V38.9784H40.6475Z" fill="#020622"/>
</svg>
