<svg width="42" height="42" viewBox="0 0 42 42" fill="none" xmlns="http://www.w3.org/2000/svg">
<path d="M20.9792 0.166656C9.47919 0.166656 0.166687 9.49999 0.166687 21C0.166687 32.5 9.47919 41.8333 20.9792 41.8333C32.5 41.8333 41.8334 32.5 41.8334 21C41.8334 9.49999 32.5 0.166656 20.9792 0.166656ZM35.4167 12.6667H29.2709C28.6042 10.0625 27.6459 7.56249 26.3959 5.24999C30.2292 6.56249 33.4167 9.22916 35.4167 12.6667ZM21 4.41666C22.7292 6.91666 24.0834 9.68749 24.9792 12.6667H17.0209C17.9167 9.68749 19.2709 6.91666 21 4.41666ZM4.87502 25.1667C4.54169 23.8333 4.33335 22.4375 4.33335 21C4.33335 19.5625 4.54169 18.1667 4.87502 16.8333H11.9167C11.75 18.2083 11.625 19.5833 11.625 21C11.625 22.4167 11.75 23.7917 11.9167 25.1667H4.87502ZM6.58335 29.3333H12.7292C13.3959 31.9375 14.3542 34.4375 15.6042 36.75C11.7709 35.4375 8.58335 32.7917 6.58335 29.3333ZM12.7292 12.6667H6.58335C8.58335 9.20832 11.7709 6.56249 15.6042 5.24999C14.3542 7.56249 13.3959 10.0625 12.7292 12.6667ZM21 37.5833C19.2709 35.0833 17.9167 32.3125 17.0209 29.3333H24.9792C24.0834 32.3125 22.7292 35.0833 21 37.5833ZM25.875 25.1667H16.125C15.9375 23.7917 15.7917 22.4167 15.7917 21C15.7917 19.5833 15.9375 18.1875 16.125 16.8333H25.875C26.0625 18.1875 26.2084 19.5833 26.2084 21C26.2084 22.4167 26.0625 23.7917 25.875 25.1667ZM26.3959 36.75C27.6459 34.4375 28.6042 31.9375 29.2709 29.3333H35.4167C33.4167 32.7708 30.2292 35.4375 26.3959 36.75ZM30.0834 25.1667C30.25 23.7917 30.375 22.4167 30.375 21C30.375 19.5833 30.25 18.2083 30.0834 16.8333H37.125C37.4584 18.1667 37.6667 19.5625 37.6667 21C37.6667 22.4375 37.4584 23.8333 37.125 25.1667H30.0834Z" fill="#F9F9F9"/>
</svg>
